Coordinates
version=1
nRows=8
nColumns=42
inDegrees=yes

Units are S.I. units (second, meters, Newtons, ...)
If the header above contains a line with 'inDegrees', this indicates whether rotational values are in degrees (yes) or radians (no).

endheader
time	pelvis_tilt	pelvis_list	pelvis_rotation	pelvis_tx	pelvis_ty	pelvis_tz	hip_flexion_r	hip_adduction_r	hip_rotation_r	knee_angle_r	knee_adduction_r	knee_angle_r_beta	ankle_angle_r	subtalar_angle_r	mtp_angle_r	hip_flexion_l	hip_adduction_l	hip_rotation_l	knee_angle_l	knee_adduction_l	knee_angle_l_beta	ankle_angle_l	subtalar_angle_l	mtp_angle_l	lumbar_extension	lumbar_bending	lumbar_rotation	arm_flex_r	arm_add_r	arm_rot_r	elbow_flex_r	pro_sup_r	wrist_flex_r	wrist_dev_r	arm_flex_l	arm_add_l	arm_rot_l	elbow_flex_l	pro_sup_l	wrist_flex_l	wrist_dev_l
      0.55000000	      7.21340629	      0.46621280	      0.65838037	     -0.60762172	      1.00639564	     -0.26655280	     18.47396484	     -5.76220288	    -10.39601588	     17.59519746	      8.42211515	      0.30709413	      1.16137075	     -6.16503708	     -7.82203598	    -19.93305124	     -3.75007419	      1.75385450	      6.05318729	     12.69196757	      0.10564805	     13.91833740	      2.22784546	     -7.82203598	    -16.57873652	     -1.66312489	     -2.83561731	     -8.70547862	     -7.05289239	    -11.92452434	     11.31721789	     90.00000001	      0.00000000	      0.00000000	     22.31261112	    -19.93639815	      2.35426173	     36.06705170	     90.00000001	      0.00000000	      0.00000000
      0.56000000	      7.04885804	      0.60274898	      0.83582038	     -0.59371129	      1.00356831	     -0.26588371	     18.38447845	     -5.88141515	    -11.09134433	     14.29454765	      8.81693042	      0.24948692	      1.27130861	     -4.44055591	     -7.80703038	    -20.52676810	     -3.74642298	      1.68899658	      6.28697865	     12.72868587	      0.10972848	     14.37429924	      2.65965321	     -7.80703038	    -16.39493095	     -1.72710827	     -3.02070696	     -9.10318475	     -6.91742142	    -13.55750592	     11.63841540	     90.00000001	      0.00000000	      0.00000000	     22.88555895	    -20.35844454	      2.87631439	     37.06075696	     90.00000001	      0.00000000	      0.00000000
      0.57000000	      6.85965591	      0.79082401	      1.00712221	     -0.57970590	      1.00070038	     -0.26527554	     18.37371990	     -6.11654495	    -11.73208458	     11.46783524	      9.33501407	      0.20015148	      1.44836684	     -2.81019211	     -7.79465679	    -21.05726193	     -3.67195541	      1.71598947	      6.60328227	     12.71692288	      0.11524902	     14.77158467	      3.01448605	     -7.79465679	    -16.19312304	     -1.83902688	     -3.20545514	     -9.50224958	     -6.81526097	    -15.04977375	     12.14256475	     90.00000001	      0.00000000	      0.00000000	     23.37922653	    -20.73545183	      3.27418277	     38.04257350	     90.00000001	      0.00000000	      0.00000000
      0.58000000	      6.56871553	      1.03109297	      1.20215587	     -0.56562283	      0.99772842	     -0.26479381	     18.56614596	     -6.43948900	    -12.16770419	      9.22231012	      9.86788261	      0.16095968	      1.56427933	     -1.37748693	     -7.78706166	    -21.41858035	     -3.53487129	      1.86887071	      7.02658680	     12.68956624	      0.12263707	     15.10490943	      3.23014770	     -7.78706166	    -15.87183853	     -1.98624778	     -3.44967550	     -9.99586545	     -6.74525581	    -16.17840011	     12.85671067	     90.00000001	      0.00000000	      0.00000000	     23.76886570	    -21.05493669	      3.47540261	     38.95683878	     90.00000001	      0.00000000	      0.00000000
      0.59000000	      6.42993742	      1.04776212	      1.47040042	     -0.55128260	      0.99502623	     -0.26411586	     18.64348410	     -6.51291337	    -12.85868360	      7.58668860	     10.26220724	      0.13241270	      1.78493582	      0.27624452	     -7.76534126	    -21.95073812	     -3.72954885	      1.99466398	      7.45473346	     12.73173042	      0.13010964	     15.38603469	      3.59456064	     -7.76534126	    -15.70451463	     -1.88300326	     -3.68401696	    -10.17769338	     -6.61586553	    -18.22818113	     13.02224797	     90.00000001	      0.00000000	      0.00000000	     24.07464038	    -21.37161583	      3.73997521	     39.87941420	     90.00000001	      0.00000000	      0.00000000
      0.60000000	      6.28727089	      1.11062708	      1.70522255	     -0.53686897	      0.99242916	     -0.26360092	     18.77409326	     -6.63400759	    -13.09141686	      6.46486933	     10.62989893	      0.11283326	      1.89013994	      1.26228919	     -7.75557038	    -22.43282170	     -3.82555695	      2.30474868	      7.94855431	     12.70347110	      0.13872844	     15.51097975	      3.74371495	     -7.75557038	    -15.53277467	     -1.80598755	     -3.92742899	    -10.62516605	     -6.55302278	    -18.97903043	     13.51049559	     90.00000001	      0.00000000	      0.00000000	     24.23326103	    -21.64448706	      3.86895682	     40.80828862	     90.00000001	      0.00000000	      0.00000000
      0.61000000	      6.04385743	      1.15442053	      1.85169698	     -0.52243922	      0.98980969	     -0.26308079	     19.17182515	     -6.70343305	    -13.02754304	      6.06879769	     10.87963368	      0.10592050	      1.94387605	      1.67956632	     -7.75313156	    -22.77568396	     -3.89821333	      2.65325049	      8.50434361	     12.65664428	      0.14842880	     15.53188135	      3.77583298	     -7.75313156	    -15.23746445	     -1.70960524	     -4.03897242	    -11.09387478	     -6.51677255	    -19.26478324	     13.78748183	     90.00000001	      0.00000000	      0.00000000	     24.41880557	    -21.72091131	      3.75760722	     41.43137197	     90.00000001	      0.00000000	      0.00000000
      0.62000000	      6.03606546	      0.95622642	      2.24277754	     -0.50770023	      0.98768862	     -0.26250381	     19.14230096	     -6.46722987	    -12.95088146	      5.82566959	     10.86507499	      0.10167712	      2.02543885	      2.20086758	     -7.74473308	    -23.28598688	     -4.38488712	      3.13813485	      9.18554164	     12.67682688	      0.16031795	     15.54482727	      3.82412435	     -7.74473308	    -15.20934534	     -1.29492545	     -4.45650188	    -11.35117367	     -6.43745783	    -19.96311378	     13.69152149	     90.00000001	      0.00000000	      0.00000000	     24.23629537	    -22.02421632	      3.70336116	     42.46227962	     90.00000001	      0.00000000	      0.00000000
